<svg width="61" height="60" viewBox="0 0 61 60" fill="none" xmlns="http://www.w3.org/2000/svg">
<g clip-path="url(#clip0_341_53)">
<mask id="mask0_341_53" style="mask-type:luminance" maskUnits="userSpaceOnUse" x="0" y="0" width="61" height="60">
<path d="M60.7422 0H0.742188V60H60.7422V0Z" fill="white"/>
</mask>
<g mask="url(#mask0_341_53)">
<path d="M28.675 16.3137C31.573 17.0297 34.2402 18.3305 36.5441 20.0859L26.1883 30.4418V37.3371L40.0668 23.4586C43.184 27.198 45.0578 32.0074 45.0578 37.2562C45.0578 49.1695 35.4004 58.8281 23.4859 58.8281C11.5727 58.8281 1.91406 49.1695 1.91406 37.2562C1.91406 27.0598 8.98867 18.518 18.4961 16.2656" stroke="#2B3990" stroke-width="1.95312" stroke-miterlimit="10" stroke-linecap="round" stroke-linejoin="round"/>
<path d="M26.1875 37.3373L45.3984 18.1264L41.9505 14.6785L26.1875 30.4415V37.3373Z" stroke="#2B3990" stroke-width="1.95312" stroke-miterlimit="10" stroke-linecap="round" stroke-linejoin="round"/>
<path d="M39.4354 37.2562C39.4354 46.0636 32.2941 53.2037 23.4868 53.2038C14.6876 53.2039 7.53895 46.0553 7.53906 37.256C7.53918 28.4487 14.6793 21.3074 23.4866 21.3074C23.497 21.3074 23.5071 21.3074 23.5175 21.3074C25.1475 21.3104 26.573 22.3752 27.1171 23.9116C28.7195 28.4365 32.3063 32.0232 36.8311 33.6257C38.3677 34.1698 39.4323 35.5953 39.4354 37.2253C39.4354 37.2357 39.4354 37.246 39.4354 37.2562Z" stroke="#2B3990" stroke-width="1.95312" stroke-miterlimit="10" stroke-linecap="round" stroke-linejoin="round"/>
<path d="M17.3263 40.6748C19.3748 40.6748 21.0354 39.0142 21.0354 36.9657C21.0354 34.9172 19.3748 33.2566 17.3263 33.2566C15.2778 33.2566 13.6172 34.9172 13.6172 36.9657C13.6172 39.0142 15.2778 40.6748 17.3263 40.6748Z" stroke="#2B3990" stroke-width="1.95312" stroke-miterlimit="10" stroke-linecap="round" stroke-linejoin="round"/>
<path d="M23.4844 47.0437C24.1316 47.0437 24.6563 46.519 24.6563 45.8718C24.6563 45.2246 24.1316 44.7 23.4844 44.7C22.8372 44.7 22.3125 45.2246 22.3125 45.8718C22.3125 46.519 22.8372 47.0437 23.4844 47.0437Z" fill="#2B3990"/>
<path d="M30.7422 42.791C31.3894 42.791 31.9141 42.2664 31.9141 41.6191C31.9141 40.9719 31.3894 40.4473 30.7422 40.4473C30.095 40.4473 29.5703 40.9719 29.5703 41.6191C29.5703 42.2664 30.095 42.791 30.7422 42.791Z" fill="#2B3990"/>
<path d="M41.951 14.6785L38.6797 11.4072L42.8846 7.20215L52.8935 17.2111L48.6762 21.4284L41.951 14.6785Z" stroke="#2B3990" stroke-width="1.95312" stroke-miterlimit="10" stroke-linecap="round" stroke-linejoin="round"/>
<path d="M59.5709 18.4711C57.7651 19.7086 55.283 19.5398 53.6588 17.9566L52.8948 17.2113L42.4334 6.75C40.9229 5.23945 40.6604 2.95312 41.6471 1.17188" stroke="#2B3990" stroke-width="1.95312" stroke-miterlimit="10" stroke-linecap="round" stroke-linejoin="round"/>
<path d="M23.7031 16.8574C24.3503 16.8574 24.875 16.3328 24.875 15.6856C24.875 15.0383 24.3503 14.5137 23.7031 14.5137C23.0559 14.5137 22.5312 15.0383 22.5312 15.6856C22.5312 16.3328 23.0559 16.8574 23.7031 16.8574Z" fill="#2B3990"/>
</g>
</g>
<defs>
<clipPath id="clip0_341_53">
<rect width="61" height="60" fill="white"/>
</clipPath>
</defs>
</svg>
