<svg width="358" height="97" viewBox="0 0 358 97" fill="none" xmlns="http://www.w3.org/2000/svg">
<g clip-path="url(#clip0_35_1719)">
<path d="M92.94 70.47C89.3107 70.5225 85.6919 70.0647 82.19 69.11C79.1724 68.308 76.3601 66.8729 73.94 64.9C71.6009 62.8967 69.791 60.3484 68.67 57.48C67.3671 54.0807 66.742 50.4593 66.83 46.82V19.22H85.26V46.82C85.26 50.07 86 52.65 87.54 54.54C89.08 56.43 91.93 57.44 96.18 57.44H110.18C111.59 57.44 112.69 57.44 113.48 57.53C114.27 57.62 115.06 57.7 115.84 57.83V19.22H134.4V70.47H92.94ZM192.85 31.94C192.066 32.0743 191.274 32.1645 190.48 32.21C189.69 32.21 188.59 32.21 187.19 32.21H172.71C170.286 32.1117 167.864 32.4504 165.56 33.21C163.928 33.8015 162.465 34.7834 161.3 36.07C160.298 37.216 159.591 38.589 159.24 40.07C158.846 41.5881 158.654 43.1517 158.67 44.72C158.655 46.3048 158.847 47.8848 159.24 49.42C159.58 50.9052 160.288 52.2808 161.3 53.42C162.453 54.7191 163.919 55.7005 165.56 56.27C167.859 57.0547 170.282 57.4139 172.71 57.33H183.94C185.35 57.374 186.754 57.136 188.07 56.63C189.112 56.1976 190.042 55.5342 190.79 54.69C191.487 53.8934 192.023 52.9698 192.37 51.97C192.679 50.962 192.841 49.9144 192.85 48.86V31.94ZM170.12 70.47C160.47 70.47 153.12 68.32 148.12 63.93C143.12 59.54 140.66 53.18 140.66 44.8C140.66 36.42 143.16 30.19 148.12 25.8C153.08 21.41 160.45 19.22 170.12 19.22H192.85V0H211.28V47.52C211.311 50.7514 210.762 53.9621 209.66 57C208.56 59.7709 206.851 62.2589 204.66 64.28C202.236 66.3964 199.395 67.9805 196.32 68.93C192.489 70.0487 188.511 70.5814 184.52 70.51L170.12 70.47ZM268.5 70.47V42.87C268.518 41.4061 268.34 39.9465 267.97 38.53C267.663 37.2902 267.059 36.1438 266.21 35.19C265.291 34.1851 264.131 33.4313 262.84 33C261.114 32.4234 259.299 32.156 257.48 32.21H242.21C240.85 32.21 239.8 32.21 239.01 32.21C238.22 32.21 237.43 32.08 236.55 31.94V70.47H218.25V0H236.55V19.22H260.73C264.348 19.1891 267.952 19.6602 271.44 20.62C274.459 21.4651 277.268 22.9295 279.69 24.92C281.977 26.9237 283.764 29.4336 284.91 32.25C286.243 35.628 286.882 39.2397 286.79 42.87V70.47H268.5ZM339.5 48.97H313.3C311.54 48.97 310.3 49.36 309.66 50.15C308.954 51.1158 308.601 52.295 308.66 53.49C308.572 54.7007 308.927 55.9021 309.66 56.87C310.31 57.66 311.54 58.05 313.3 58.05H339.49L339.5 48.97ZM307.12 70.47C304.692 70.532 302.275 70.128 300 69.28C298.144 68.5425 296.501 67.3532 295.22 65.82C294 64.3165 293.129 62.5609 292.67 60.68C292.122 58.5609 291.857 56.3787 291.88 54.19C291.854 52.0999 292.12 50.0165 292.67 48C293.114 46.2213 293.99 44.5795 295.22 43.22C296.541 41.8401 298.183 40.8094 300 40.22C302.314 39.5019 304.728 39.1642 307.15 39.22H339C338.47 36.22 337.42 34.22 335.84 33.12C334.26 32.02 331.67 31.54 328.07 31.54H293.86V19.22H329.66C333.871 19.1385 338.075 19.5956 342.17 20.58C345.343 21.3442 348.29 22.8486 350.77 24.97C353.114 27.1244 354.84 29.8654 355.77 32.91C356.888 36.8088 357.404 40.8554 357.3 44.91V70.47H307.12ZM1.4 70.47V58H39.67C41.0019 58.0845 42.3251 57.7336 43.44 57C43.8504 56.6231 44.1671 56.1557 44.365 55.6349C44.5629 55.1141 44.6365 54.5543 44.58 54C44.6422 53.4676 44.5705 52.9281 44.3715 52.4304C44.1724 51.9327 43.8522 51.4926 43.44 51.15C42.2808 50.5423 40.9756 50.2688 39.67 50.36H18.67C12.27 50.36 7.56 48.97 4.54 46.19C1.54 43.44 0 39.49 0 34.4C0 29.31 1.54 25.4 4.56 22.9C7.58 20.4 12.29 19.22 18.69 19.22H60.16V31.55H22.55C21.1799 31.4615 19.8086 31.7015 18.55 32.25C17.76 32.73 17.41 33.74 17.41 35.25C17.41 36.76 17.76 37.84 18.55 38.36C19.7952 38.9541 21.1741 39.2127 22.55 39.11H45.11C47.8715 39.034 50.6272 39.4054 53.27 40.21C55.2598 40.8601 57.0756 41.9544 58.58 43.41C59.9414 44.8411 60.9214 46.5914 61.43 48.5C62.0365 50.7457 62.3326 53.0639 62.31 55.39C62.3498 57.6475 62.0394 59.8976 61.39 62.06C60.8353 63.8671 59.798 65.4887 58.39 66.75C56.7432 68.1366 54.7834 69.1011 52.68 69.56C49.774 70.216 46.7983 70.5115 43.82 70.44L1.4 70.47Z" fill="#2B3990"/>
<path d="M343.41 96.0591V79.5791H347.3V92.4191H357.24V96.0591H343.41ZM314.35 96.0591V82.9991H308.2V79.5791H324.41V82.9991H318.26V96.0591H314.35ZM302.52 96.0591V79.5791H306.41V96.0591H302.52ZM289.3 82.9991V87.2391H295C295.482 87.2873 295.963 87.1435 296.34 86.8391C296.603 86.3038 296.74 85.7154 296.74 85.1191C296.74 84.5227 296.603 83.9343 296.34 83.3991C295.963 83.0946 295.482 82.9508 295 82.9991H289.3ZM289.3 90.6591V96.0291H285.41V79.5791H295C295.888 79.5603 296.774 79.6714 297.63 79.9091C298.286 80.09 298.883 80.4416 299.359 80.9282C299.835 81.4149 300.174 82.019 300.34 82.6791C300.753 84.2998 300.753 85.9983 300.34 87.6191C300.158 88.271 299.814 88.8663 299.34 89.3491C298.852 89.8217 298.254 90.1654 297.6 90.3491C296.744 90.5867 295.858 90.6979 294.97 90.6791L289.3 90.6591ZM268.08 96.0291V92.9991H277.82C278.088 92.9997 278.356 92.9762 278.62 92.9291C278.82 92.8876 279.003 92.7905 279.15 92.6491C279.295 92.4841 279.395 92.2842 279.44 92.0691C279.516 91.7651 279.549 91.4522 279.54 91.1391C279.607 90.6045 279.467 90.0646 279.15 89.6291C278.767 89.3468 278.294 89.2152 277.82 89.2591H273.37C272.491 89.28 271.613 89.1825 270.76 88.9691C270.118 88.8126 269.522 88.5078 269.02 88.0791C268.558 87.6782 268.212 87.1599 268.02 86.5791C267.62 85.1737 267.62 83.6845 268.02 82.2791C268.215 81.6965 268.56 81.1756 269.02 80.7691C269.519 80.3332 270.116 80.0244 270.76 79.8691C271.613 79.6519 272.49 79.551 273.37 79.5691H282.91V82.6491H273.37C272.904 82.6043 272.437 82.7247 272.05 82.9891C271.731 83.4086 271.591 83.9368 271.66 84.4591C271.654 84.7682 271.684 85.077 271.75 85.3791C271.794 85.5966 271.898 85.7975 272.05 85.9591C272.199 86.1022 272.387 86.1994 272.59 86.2391C272.847 86.2918 273.108 86.3153 273.37 86.3091H277.82C278.699 86.2943 279.576 86.3918 280.43 86.5991C281.073 86.7584 281.669 87.0667 282.17 87.4991C282.635 87.9055 282.981 88.431 283.17 89.0191C283.382 89.7224 283.483 90.4545 283.47 91.1891C283.483 91.9203 283.382 92.6492 283.17 93.3491C282.976 93.9348 282.631 94.4591 282.17 94.8691C281.668 95.2981 281.072 95.603 280.43 95.7591C279.576 95.9664 278.699 96.0638 277.82 96.0491L268.08 96.0291ZM257.94 92.7791C258.682 92.8121 259.422 92.6717 260.1 92.3691C260.618 92.1163 261.063 91.7339 261.39 91.2591C261.696 90.7852 261.903 90.2547 262 89.6991C262.21 88.4747 262.21 87.2235 262 85.9991C261.903 85.4311 261.688 84.8896 261.37 84.4091C261.043 83.9342 260.598 83.5519 260.08 83.2991C259.402 82.9964 258.662 82.856 257.92 82.8891H256.1C255.41 82.8632 254.724 83.0038 254.1 83.2991C253.603 83.5561 253.183 83.9388 252.88 84.4091C252.58 84.8957 252.376 85.4355 252.28 85.9991C252.08 87.2344 252.08 88.4938 252.28 89.7291C252.378 90.2922 252.581 90.8317 252.88 91.3191C253.183 91.7893 253.603 92.172 254.1 92.4291C254.724 92.7243 255.41 92.8649 256.1 92.8391L257.94 92.7791ZM255.66 96.0291C254.639 96.1122 253.611 95.9739 252.648 95.6235C251.685 95.2732 250.809 94.7191 250.08 93.9991C248.701 92.2695 248.019 90.0861 248.17 87.8791C248.017 85.6687 248.698 83.4813 250.08 81.7491C250.802 81.0135 251.674 80.443 252.637 80.077C253.601 79.711 254.632 79.5582 255.66 79.6291H258.66C259.688 79.5582 260.719 79.711 261.683 80.077C262.646 80.443 263.518 81.0135 264.24 81.7491C265.622 83.4813 266.303 85.6687 266.15 87.8791C266.292 90.09 265.6 92.2738 264.21 93.9991C263.488 94.7334 262.615 95.3024 261.652 95.6666C260.688 96.0309 259.657 96.1819 258.63 96.1091L255.66 96.0291ZM242.22 96.0291V89.2491H234.14V96.0591H230.23V79.5791H234.14V85.8791H242.22V79.5791H246.15V96.0591L242.22 96.0291ZM211.65 96.0291V89.7291L205.31 79.5491H209.47L213.63 86.4391L217.75 79.5491H222L215.61 89.7291V96.0291H211.65ZM193.83 96.0291V82.9991H187.68V79.5791H203.89V82.9991H197.74V96.0591L193.83 96.0291ZM182 96.0291V79.5791H185.89V96.0591L182 96.0291ZM166.42 96.0291V79.5791H170.31V92.4191H180.24V96.0591L166.42 96.0291ZM142.9 96.0291V79.5791H146.79V96.0591L142.9 96.0291ZM132.46 96.0291C131.592 96.0802 130.723 95.9258 129.926 95.5783C129.128 95.2308 128.424 94.7 127.87 94.0291C126.81 92.6957 126.28 90.6224 126.28 87.8091C126.28 85.0191 126.81 82.9391 127.87 81.5891C128.423 80.9175 129.128 80.3863 129.925 80.0387C130.723 79.6912 131.591 79.5371 132.46 79.5891H140.85V82.9991H133.07C132.558 82.9743 132.049 83.0811 131.59 83.3091C131.211 83.525 130.905 83.8487 130.71 84.2391C130.483 84.7103 130.34 85.2182 130.29 85.7391C130.217 86.4233 130.184 87.1111 130.19 87.7991C130.184 88.4871 130.218 89.1748 130.29 89.8591C130.339 90.3834 130.481 90.8948 130.71 91.3691C130.905 91.7595 131.211 92.0832 131.59 92.2991C132.049 92.5271 132.558 92.6338 133.07 92.6091H140.85V96.0291H132.46ZM115.93 96.0291C115.061 96.0819 114.193 95.9281 113.395 95.5805C112.597 95.2329 111.893 94.7012 111.34 94.0291C110.267 92.6957 109.733 90.6224 109.74 87.8091C109.74 85.0191 110.27 82.9391 111.34 81.5891C111.892 80.9156 112.596 80.3831 113.394 80.0353C114.192 79.6876 115.061 79.5346 115.93 79.5891H124.31V82.9991H116.49C116.066 82.9906 115.645 83.0653 115.25 83.2191C114.919 83.3561 114.627 83.5724 114.4 83.8491C114.159 84.1429 113.982 84.4834 113.88 84.8491C113.745 85.2912 113.661 85.7476 113.63 86.2091H124.23V89.3891H113.6C113.641 89.8715 113.721 90.3498 113.84 90.8191C113.949 91.1823 114.125 91.5216 114.36 91.8191C114.583 92.1022 114.876 92.3226 115.21 92.4591C115.618 92.6175 116.053 92.6923 116.49 92.6791H124.31V96.0491L115.93 96.0291ZM96.81 82.9991V87.2391H102.5C102.739 87.264 102.98 87.2415 103.21 87.1729C103.44 87.1042 103.654 86.9908 103.84 86.8391C104.103 86.3038 104.24 85.7154 104.24 85.1191C104.24 84.5227 104.103 83.9343 103.84 83.3991C103.654 83.2473 103.44 83.1339 103.21 83.0652C102.98 82.9966 102.739 82.9741 102.5 82.9991H96.81ZM96.81 90.6591V96.0291H92.92V79.5791H102.5C103.388 79.5603 104.274 79.6714 105.13 79.9091C105.786 80.09 106.383 80.4416 106.859 80.9282C107.335 81.4149 107.674 82.019 107.84 82.6791C108.253 84.2998 108.253 85.9983 107.84 87.6191C107.658 88.271 107.314 88.8663 106.84 89.3491C106.352 89.8217 105.754 90.1654 105.1 90.3491C104.244 90.5867 103.358 90.6979 102.47 90.6791L96.81 90.6591ZM75.59 96.0591V92.9991H85.34C85.6049 92.9992 85.8693 92.9758 86.13 92.9291C86.3295 92.8876 86.5133 92.7905 86.66 92.6491C86.8085 92.4849 86.9118 92.2851 86.96 92.0691C87.0268 91.7637 87.057 91.4515 87.05 91.1391C87.1166 90.6045 86.9771 90.0646 86.66 89.6291C86.2809 89.3466 85.8106 89.2148 85.34 89.2591H80.88C80.0023 89.2899 79.1244 89.2024 78.27 88.9991C77.6283 88.8426 77.0324 88.5378 76.53 88.1091C76.0711 87.7053 75.7262 87.188 75.53 86.6091C75.1298 85.2037 75.1298 83.7145 75.53 82.3091C75.7284 81.7283 76.0728 81.2084 76.53 80.7991C77.029 80.3632 77.6259 80.0544 78.27 79.8991C79.1225 79.6819 80.0005 79.581 80.88 79.5991H90.42V82.6791H80.88C80.4138 82.6343 79.9466 82.7547 79.56 83.0191C79.2415 83.4386 79.1014 83.9668 79.17 84.4891C79.1635 84.7982 79.1937 85.107 79.26 85.4091C79.3082 85.6251 79.4115 85.8249 79.56 85.9891C79.7095 86.1322 79.8969 86.2294 80.1 86.2691C80.3566 86.3213 80.6182 86.3448 80.88 86.3391H85.34C86.2155 86.3249 87.0892 86.4224 87.94 86.6291C88.5847 86.7908 89.1835 87.0987 89.69 87.5291C90.156 87.9348 90.5019 88.4605 90.69 89.0491C90.9035 89.7455 91.008 90.4707 91 91.1991C91.0135 91.9303 90.9122 92.6592 90.7 93.3591C90.5065 93.945 90.1615 94.4694 89.7 94.8791C89.1927 95.3061 88.5939 95.6106 87.95 95.7691C87.0992 95.9757 86.2255 96.0732 85.35 96.0591H75.59ZM69.47 96.0591V79.5791H73.36V96.0591H69.47ZM57.61 96.0591V82.9991H51.46V79.5791H67.67V82.9991H61.52V96.0591H57.61ZM40.4 96.0591V79.5791H44.29V92.4191H54.23V96.0591H40.4ZM28.13 96.0591C26.6856 96.1576 25.2572 95.7077 24.13 94.7991C23.6412 94.3274 23.2617 93.7545 23.0181 93.1204C22.7745 92.4864 22.6727 91.8066 22.72 91.1291V79.5791H26.64V90.6891C26.6264 91.1641 26.7823 91.6285 27.08 91.9991C27.2655 92.1924 27.4922 92.3414 27.7433 92.4349C27.9943 92.5284 28.2633 92.564 28.53 92.5391H34.19V79.5391H38.08V96.0591H28.13ZM16.94 96.0591V84.8791C16.9447 84.6339 16.8992 84.3903 16.8063 84.1633C16.7135 83.9363 16.5752 83.7307 16.4 83.5591C16.2256 83.3806 16.0171 83.2391 15.7869 83.1429C15.5567 83.0467 15.3095 82.9978 15.06 82.9991H12.24V95.9991H8.45V82.9991H3.83V95.9991H0V79.5791H15.33C16.7751 79.4883 18.2019 79.9413 19.33 80.8491C19.8142 81.3278 20.1898 81.9051 20.4314 82.5418C20.6729 83.1784 20.7748 83.8596 20.73 84.5391V96.0591H16.94Z" fill="#2B3990"/>
<path d="M163.9 82.6894C163.736 82.0254 163.398 81.4173 162.919 80.9284C162.441 80.4396 161.841 80.0877 161.18 79.9094C160.327 79.6765 159.445 79.5654 158.56 79.5794H154.62C153.736 79.5648 152.854 79.6759 152 79.9094C151.34 80.0877 150.74 80.4396 150.261 80.9284C149.783 81.4173 149.444 82.0254 149.28 82.6894C149.059 83.4902 148.954 84.3187 148.97 85.1494V96.0694H152.86V90.6994H160.31V96.0694H164.21V85.1494C164.226 84.3187 164.122 83.4902 163.9 82.6894ZM160.29 87.2794H152.89V85.1494C152.818 84.5483 152.956 83.9408 153.28 83.4294C153.657 83.1249 154.138 82.9812 154.62 83.0294H158.56C159.042 82.9823 159.523 83.1259 159.9 83.4294C160.224 83.9408 160.362 84.5483 160.29 85.1494V87.2794Z" fill="#2B3990"/>
<path d="M341.001 82.6894C340.837 82.0254 340.499 81.4173 340.02 80.9284C339.542 80.4396 338.941 80.0877 338.281 79.9094C337.428 79.6759 336.546 79.5648 335.661 79.5794H331.721C330.837 79.5654 329.954 79.6765 329.101 79.9094C328.441 80.0877 327.84 80.4396 327.362 80.9284C326.884 81.4173 326.545 82.0254 326.381 82.6894C326.165 83.4912 326.06 84.319 326.071 85.1494V96.0694H330.001V90.6994H337.441V96.0694H341.341V85.1494C341.357 84.3187 341.253 83.4902 341.031 82.6894M337.421 87.2794H330.001V85.1494C329.929 84.5483 330.067 83.9408 330.391 83.4294C330.768 83.1259 331.249 82.9823 331.731 83.0294H335.671C336.153 82.9812 336.634 83.1249 337.011 83.4294C337.335 83.9408 337.473 84.5483 337.401 85.1494L337.421 87.2794Z" fill="#2B3990"/>
</g>
<defs>
<clipPath id="clip0_35_1719">
<rect width="357.26" height="96.07" fill="white"/>
</clipPath>
</defs>
</svg>
