<svg width="50" height="50" viewBox="0 0 50 50" fill="none" xmlns="http://www.w3.org/2000/svg">
<path d="M49.9998 38.6382L49.9266 32.6804V32.6762L49.802 22.5706C49.802 22.5662 49.8034 22.5622 49.8034 22.5577C49.8034 22.5563 49.802 22.5549 49.802 22.5521L49.7247 16.3504C49.7077 15.0483 48.5107 13.9093 46.3543 13.1026L46.2971 8.30114C46.267 6.05422 42.2195 5.03186 38.4653 5.03186L38.2048 5.03327C34.2031 5.08194 30.1699 6.28817 30.1943 8.4996L30.2545 13.3024C28.1197 14.1599 26.9483 15.3318 26.9629 16.6319L27.0529 24.0506C26.1138 22.838 24.7917 21.8629 23.1338 21.1756C20.0154 19.8833 17.2206 20.2299 15.0786 22.1048V13.2145C15.0786 12.81 14.7487 12.4813 14.3454 12.4813C13.941 12.4813 13.6123 12.8098 13.6123 13.2145V16.0107C13.2065 15.3993 12.6694 14.8021 11.9485 14.3934C11.2356 13.9918 10.3851 13.7863 9.41635 13.7863C8.11842 13.7863 7.05257 14.1599 7.0046 14.1764C6.66295 14.2982 6.4605 14.6554 6.53198 15.0132C6.55855 15.132 7.15273 17.9355 9.27245 19.1361C9.98773 19.5377 10.8382 19.7432 11.8074 19.7432C12.5262 19.7432 13.1684 19.6287 13.6092 19.5233V22.1034C11.4674 20.2285 8.67616 19.8821 5.5543 21.1758C0.548799 23.2488 -1.18366 27.7424 0.80721 33.5038C2.44655 38.2542 6.13625 42.8301 9.58048 44.3808C11.0832 45.058 12.5293 45.1499 13.7506 44.6428C13.9452 44.5626 14.1399 44.4596 14.3426 44.3307C14.5453 44.4596 14.74 44.56 14.9347 44.6428C15.455 44.8577 16.0156 44.968 16.6048 44.968C17.1633 44.968 17.753 44.8321 18.3523 44.6399C18.4861 44.8318 18.6959 44.968 18.9479 44.968H41.9232C42.3255 44.968 42.6563 44.6399 42.6563 44.2348V43.0208C46.2915 42.461 50.0254 41.0351 49.9998 38.6382ZM11.8119 18.2757C11.1011 18.2757 10.4909 18.1346 10.0014 17.8593C8.99264 17.2893 8.44008 16.1217 8.17438 15.3831C8.51156 15.3144 8.94962 15.2512 9.42341 15.2512C10.133 15.2512 10.7427 15.3923 11.2325 15.6671C12.2412 16.2376 12.7938 17.4045 13.0595 18.144C12.7195 18.2127 12.2814 18.2757 11.8119 18.2757ZM42.6288 35.5598C42.4769 32.6992 41.2716 30.3396 39.2283 28.6871L39.2098 27.2484C41.8628 27.151 44.3357 26.7156 46.2398 26.0012C47.1688 25.6546 47.8445 25.2803 48.3614 24.9022L48.4587 32.6931C48.4719 33.6614 46.2943 34.9471 42.6288 35.5598ZM48.2887 18.6938L48.336 22.5817C48.339 23.2424 47.3367 24.0256 45.7288 24.6283C43.8059 25.3478 41.2216 25.7637 38.4611 25.7952C38.2664 25.7983 38.0804 25.8782 37.9459 26.0158C37.807 26.1562 37.7327 26.345 37.7352 26.5354L37.7496 27.6895C35.7881 26.5956 33.3157 25.9888 30.4405 25.9888C29.7878 25.9888 29.1593 26.0318 28.5477 26.0917L28.4574 18.9371C30.5005 20.3324 34.3277 21.054 38.0503 21.054C38.1677 21.054 38.2822 21.054 38.3995 21.0526C42.2355 21.0068 46.224 20.1843 48.2887 18.6938ZM30.4403 27.4588C33.0991 27.4588 35.8481 28.0631 37.9069 29.512C37.9986 29.6439 38.1246 29.7438 38.2808 29.7925C40.0316 31.1772 41.1957 33.2431 41.1957 36.1754V38.0367H19.6865V36.1754C19.6865 29.7497 25.2417 27.4588 30.4403 27.4588ZM44.9011 14.0913C44.904 14.2902 44.563 14.7964 43.2576 15.2848C41.9561 15.7701 40.2135 16.0499 38.3393 16.0735C36.4766 16.0892 34.7143 15.8595 33.4055 15.405C32.0897 14.949 31.7349 14.4522 31.7318 14.2509L31.6876 10.5126C33.2082 11.3659 35.6781 11.7661 38.0247 11.7661L38.288 11.7646C40.8021 11.7338 43.3291 11.2457 44.8555 10.3365L44.8913 13.4562C44.8682 13.5622 44.8696 13.6645 44.8941 13.7642L44.9011 14.0913ZM38.2264 6.49509L38.4698 6.49368C42.5731 6.49368 44.8266 7.69779 44.8325 8.31619C44.844 8.98632 42.3587 10.2469 38.2723 10.2984L38.0275 10.2998C33.9256 10.2998 31.6705 9.09566 31.6634 8.47726C31.6547 7.80595 34.1387 6.54682 38.2264 6.49509ZM30.373 14.8345C30.5992 15.4764 31.2635 16.2124 32.9244 16.789C34.3277 17.2757 36.1545 17.5397 38.0959 17.5397C38.1848 17.5397 38.2692 17.5397 38.3565 17.5383C40.3953 17.5134 42.3168 17.2011 43.7688 16.6571C45.4151 16.0415 46.0622 15.2905 46.2741 14.6427C47.703 15.2498 48.2527 15.9077 48.2584 16.3681C48.2755 17.6629 44.5245 19.5144 38.3837 19.5894C32.1784 19.6359 28.4473 17.9049 28.4315 16.6114C28.4273 16.1522 28.9528 15.4781 30.373 14.8345ZM15.4992 43.2856C15.2867 43.1969 15.0668 43.0594 14.8011 42.8532C14.5357 42.6441 14.1604 42.6416 13.8963 42.8503C13.6219 43.065 13.4066 43.1995 13.194 43.2884C12.3414 43.6376 11.3306 43.5588 10.1874 43.042C7.12616 41.666 3.69064 37.3579 2.19802 33.0227C0.468384 28.0172 1.86225 24.2911 6.12309 22.5271C8.32792 21.6122 11.4434 21.1993 13.7543 24.4185C13.763 24.4315 13.7823 24.4364 13.7893 24.4479C13.921 24.6135 14.1207 24.7249 14.3478 24.7249C14.5768 24.7249 14.7743 24.6132 14.9098 24.4479C14.9196 24.4366 14.9377 24.4315 14.9434 24.4185C17.2536 21.2005 20.3691 21.6136 22.5746 22.5271C24.0143 23.1241 25.8364 24.2775 26.7061 26.3763C21.45 27.5061 18.22 31.1027 18.22 36.1768V43.1466C17.2002 43.5461 16.2803 43.6091 15.4992 43.2856ZM19.6865 43.5003V39.4999H41.1959V43.5003H19.6865ZM42.662 41.5273V37.0475C44.864 36.6998 47.0902 36.0395 48.489 35.0331L48.5335 38.6553C48.5464 39.6088 46.4803 40.9032 42.662 41.5273ZM25.0569 32.0206C25.0569 31.6399 25.3692 31.3277 25.7508 31.3277C26.1343 31.3277 26.4428 31.6369 26.4428 32.0206C26.4428 32.4043 26.1343 32.7135 25.7508 32.7135C25.3692 32.7135 25.0569 32.4041 25.0569 32.0206ZM27.9462 31.7312C27.9462 30.8062 28.6937 30.0591 29.6185 30.0591C30.5432 30.0591 31.2952 30.8064 31.2952 31.7312C31.2952 32.6559 30.5435 33.4065 29.6185 33.4065C28.6935 33.4065 27.9462 32.6562 27.9462 31.7312ZM33.0063 33.3693C33.0063 32.4443 33.7537 31.694 34.6785 31.694C35.6033 31.694 36.355 32.4443 36.355 33.3693C36.355 34.2913 35.6035 35.0444 34.6785 35.0444C33.7535 35.0444 33.0063 34.2913 33.0063 33.3693ZM24.1321 35.4282C24.1321 34.6294 24.7787 33.9849 25.5775 33.9849C26.3736 33.9849 27.0172 34.6292 27.0172 35.4282C27.0172 36.2243 26.3736 36.8714 25.5775 36.8714C24.7799 36.8714 24.1321 36.2243 24.1321 35.4282Z" fill="#2B3990"/>
</svg>
