<svg width="50" height="50" viewBox="0 0 50 50" fill="none" xmlns="http://www.w3.org/2000/svg">
<g clip-path="url(#clip0_271_1850)">
<path d="M35.5984 9.86929C35.5984 7.37192 33.5739 5.34741 31.0765 5.34741C28.5791 5.34741 26.5546 7.37192 26.5546 9.86929C26.5546 9.86929 24.0281 10.2969 24.3093 13.053C24.3093 13.053 23.5219 9.62202 21.2721 9.39702C19.0223 9.17202 16.4351 11.7593 16.4351 11.7593C16.4351 11.7593 15.8727 10.1845 15.0289 10.6344C14.1853 11.0844 13.5103 15.0778 17.7849 15.4714C17.7849 15.4714 16.8287 22.1084 24.2531 21.6584C31.6774 21.2084 32.1686 16.9486 32.4292 14.1852C34.2658 13.6102 35.5984 11.8955 35.5984 9.86929Z" stroke="#2B3990" stroke-width="1.5" stroke-miterlimit="10" stroke-linecap="round" stroke-linejoin="round"/>
<path d="M28.5483 13.6189C27.3455 12.8063 26.5547 11.4301 26.5547 9.86929C26.5547 7.37192 28.5792 5.34741 31.0766 5.34741" stroke="#2B3990" stroke-width="1.5" stroke-miterlimit="10" stroke-linecap="round" stroke-linejoin="round"/>
<path d="M24.3096 13.053C24.3096 13.053 24.6021 14.7988 25.6162 15.4749" stroke="#2B3990" stroke-width="1.5" stroke-miterlimit="10" stroke-linecap="round" stroke-linejoin="round"/>
<path d="M18.8681 13.2545C18.8681 13.2545 17.9604 13.9645 17.7852 15.4715" stroke="#2B3990" stroke-width="1.5" stroke-miterlimit="10" stroke-linecap="round" stroke-linejoin="round"/>
<path d="M12.7577 18.3467L21.4285 26.7744C23.4171 28.7073 26.5827 28.7073 28.5712 26.7744L39.7022 15.9555C43.128 12.6258 43.088 7.11236 39.6144 3.83267C36.851 1.22349 32.6794 0.79654 29.4448 2.79175L24.9999 5.53336L20.5549 2.79166C17.3203 0.796442 13.1487 1.22349 10.3853 3.83257C6.91167 7.11236 6.87173 12.6257 10.2975 15.9554" stroke="#2B3990" stroke-width="1.5" stroke-miterlimit="10" stroke-linecap="round" stroke-linejoin="round"/>
<path d="M17.0462 1.58997C17.0462 1.58997 14.7102 4.1928 15.6681 5.94016C16.8402 8.07815 20.4623 4.95413 21.2715 9.397" stroke="#2B3990" stroke-width="1.5" stroke-miterlimit="10" stroke-linecap="round" stroke-linejoin="round"/>
<path d="M14.0732 48.458L14.084 42.293L5.55176 35.1817C4.96484 34.6924 4.5127 34.0625 4.23828 33.3496L0.861328 24.5879C0.774414 24.3614 0.732422 24.126 0.732422 23.8946C0.732422 23.2735 1.03223 22.6739 1.56641 22.3047C2.50488 21.6582 3.7959 21.96 4.34961 22.9571L8.1875 29.8682L13.5654 31.8155" stroke="#2B3990" stroke-width="1.5" stroke-miterlimit="10" stroke-linecap="round" stroke-linejoin="round"/>
<path d="M14.5156 34.4174C14.1416 33.7821 13.8657 33.0939 13.6973 32.3761L12.7218 28.219C12.4905 27.2331 13.1189 26.2508 14.1109 26.0477C14.8998 25.8861 15.6999 26.269 16.069 26.9847L17.5037 29.7673L21.566 33.5317C22.9162 34.7828 23.7694 36.4793 23.9687 38.3092L24.297 41.3239L24.9996 48.4583" stroke="#2B3990" stroke-width="1.5" stroke-miterlimit="10" stroke-linecap="round" stroke-linejoin="round"/>
<path d="M39.8177 30.5905L41.8125 29.8682L45.6504 22.9571C46.2041 21.96 47.4951 21.6582 48.4336 22.3047C48.9678 22.6739 49.2676 23.2735 49.2676 23.8946C49.2676 24.126 49.2256 24.3614 49.1387 24.5879L45.7617 33.3496C45.4873 34.0625 45.0352 34.6924 44.4482 35.1817L35.916 42.293L35.9268 48.458" stroke="#2B3990" stroke-width="1.5" stroke-miterlimit="10" stroke-linecap="round" stroke-linejoin="round"/>
<path d="M35.484 34.4174C35.858 33.7821 36.1339 33.0939 36.3023 32.3761L37.2778 28.219C37.5092 27.2331 36.8808 26.2508 35.8888 26.0477C35.0998 25.8861 34.2997 26.269 33.9307 26.9847L32.4959 29.7673L28.4336 33.5317C27.0834 34.7828 26.2303 36.4793 26.031 38.3092L25.7026 41.3239L25 48.4583" stroke="#2B3990" stroke-width="1.5" stroke-miterlimit="10" stroke-linecap="round" stroke-linejoin="round"/>
</g>
<defs>
<clipPath id="clip0_271_1850">
<rect width="50" height="50" fill="white"/>
</clipPath>
</defs>
</svg>
