<svg width="512" height="512" viewBox="0 0 512 512" fill="none" xmlns="http://www.w3.org/2000/svg">
<path d="M316.851 230.915C334.857 230.915 349.453 216.319 349.453 198.313C349.453 180.307 334.857 165.711 316.851 165.711C298.845 165.711 284.249 180.307 284.249 198.313C284.249 216.319 298.845 230.915 316.851 230.915Z" stroke="#2B3990" stroke-width="15" stroke-miterlimit="10" stroke-linecap="round" stroke-linejoin="round"/>
<path d="M297.261 502.722C338.853 502.722 372.57 469.005 372.57 427.413C372.57 385.82 338.853 352.104 297.261 352.104C255.669 352.104 221.952 385.82 221.952 427.413C221.952 469.005 255.669 502.722 297.261 502.722Z" stroke="#2B3990" stroke-width="15" stroke-miterlimit="10" stroke-linecap="round" stroke-linejoin="round"/>
<path d="M440.358 502.722C453.908 502.722 464.893 491.738 464.893 478.187C464.893 464.637 453.908 453.652 440.358 453.652C426.808 453.652 415.823 464.637 415.823 478.187C415.823 491.738 426.808 502.722 440.358 502.722Z" stroke="#2B3990" stroke-width="15" stroke-miterlimit="10" stroke-linecap="round" stroke-linejoin="round"/>
<path d="M171.725 213.252L185.662 217.851C192.518 220.113 197.89 225.5 200.133 232.363L226.617 313.387C230.324 323.555 239.993 331.426 250.816 331.426H405.193" stroke="#2B3990" stroke-width="15" stroke-miterlimit="10" stroke-linecap="round" stroke-linejoin="round"/>
<path d="M460.457 462.936H478.084" stroke="#2B3990" stroke-width="15" stroke-miterlimit="10" stroke-linecap="round" stroke-linejoin="round"/>
<path d="M364.303 331.426L418.455 462.937" stroke="#2B3990" stroke-width="15" stroke-miterlimit="10" stroke-linecap="round" stroke-linejoin="round"/>
<path d="M286.645 213.822L272.627 232.513C265.76 241.669 261.966 252.764 261.79 264.208L260.8 331.426" stroke="#2B3990" stroke-width="15" stroke-miterlimit="10" stroke-linecap="round" stroke-linejoin="round"/>
<path d="M328.511 230.834V288.301C328.511 294.862 333.829 300.18 340.39 300.18H381.964C390.592 300.18 397.587 307.174 397.587 315.803C397.587 324.431 390.593 331.426 381.964 331.426H325.148C309.948 331.426 297.627 319.104 297.627 303.905V269.332" stroke="#2B3990" stroke-width="15" stroke-miterlimit="10" stroke-linecap="round" stroke-linejoin="round"/>
<path d="M375.165 353.893L400.471 357.43C411.822 359.017 421.45 366.569 425.695 377.215L446.514 429.682" stroke="#2B3990" stroke-width="15" stroke-miterlimit="10" stroke-linecap="round" stroke-linejoin="round"/>
<path d="M81.124 154.048L76.13 189.771C74.371 201.092 81.654 211.85 92.818 214.424L151.588 227.969C160.547 230.034 169.297 223.804 170.277 214.662C171.107 206.918 166 199.783 158.403 198.07L108.7 186.867L115.022 143.305" stroke="#2B3990" stroke-width="15" stroke-miterlimit="10" stroke-linecap="round" stroke-linejoin="round"/>
<path d="M125.249 246.461L139.201 370.921H56.2832L67.5012 302.284L60.3062 294.045C47.2832 279.133 44.0192 258.051 51.9222 239.899L62.1362 216.439" stroke="#2B3990" stroke-width="15" stroke-miterlimit="10" stroke-linecap="round" stroke-linejoin="round"/>
<path d="M127.957 391.471L141.387 483.771C142.632 491.768 136.447 498.99 128.353 498.99H128.147C121.654 498.99 116.127 494.265 115.117 487.851L100.886 391.471" stroke="#2B3990" stroke-width="15" stroke-miterlimit="10" stroke-linecap="round" stroke-linejoin="round"/>
<path d="M87.2672 429.295L78.6722 487.863C77.6572 494.271 72.1322 498.99 65.6442 498.99C57.4772 498.99 51.2732 491.644 52.6392 483.592L67.2592 391.471" stroke="#2B3990" stroke-width="15" stroke-miterlimit="10" stroke-linecap="round" stroke-linejoin="round"/>
<path d="M131.498 63.1133C131.498 63.1133 119.571 84.2833 97.8042 88.4583" stroke="#2B3990" stroke-width="15" stroke-miterlimit="10" stroke-linecap="round" stroke-linejoin="round"/>
<path d="M97.3111 107.92C99.4651 114.202 105.021 118.7 111.614 119.5L116.821 120.131C127.14 121.382 136.23 113.327 136.23 102.933L136.35 80.6059C136.35 62.6009 121.754 48.0039 103.748 48.0039C85.7421 48.0039 71.1461 62.5999 71.1461 80.6059C71.1461 123.143 33.9951 160.022 33.9951 160.022C33.9951 160.022 42.8081 168.861 57.2671 171.812" stroke="#2B3990" stroke-width="15" stroke-miterlimit="10" stroke-linecap="round" stroke-linejoin="round"/>
<path d="M84.3952 48.3792L78.2212 31.0932L135.841 12.1602L132.549 39.7362" stroke="#2B3990" stroke-width="15" stroke-miterlimit="10" stroke-linecap="round" stroke-linejoin="round"/>
<path d="M217.566 366.218L177.837 242.699" stroke="#2B3990" stroke-width="15" stroke-miterlimit="10" stroke-linecap="round" stroke-linejoin="round"/>
</svg>
