<svg width="50" height="50" viewBox="0 0 50 50" fill="none" xmlns="http://www.w3.org/2000/svg">
<g clip-path="url(#clip0_178_4698)">
<path d="M48.797 36.848H45.831C46.5551 36.2376 47.103 35.3769 47.3919 34.1621C47.5823 33.3605 47.4957 32.6121 47.4041 31.8196C47.2988 30.9104 47.19 29.9702 47.4632 28.752C47.6731 27.8152 47.5203 27.1121 47.009 26.6623C46.39 26.1179 45.3791 26.0948 44.004 26.5941C43.5683 26.7526 43.1782 26.9919 42.8466 27.2968C42.0245 26.9867 41.1389 26.8726 40.2541 26.9666C38.6503 27.1377 37.1661 28.0999 36.2207 29.4991C35.2577 28.8513 34.0785 28.3354 32.7604 27.9911C32.3686 27.8887 31.9688 28.1233 31.8666 28.5146C31.7644 28.9061 31.9987 29.3062 32.3901 29.4084C33.6195 29.7295 34.6984 30.2113 35.5463 30.8132C35.5236 30.8745 35.5017 30.9362 35.481 30.9984C35.2395 31.7328 35.1516 32.4927 35.227 33.1955C35.3809 34.6398 35.9851 35.9088 36.9147 36.8479H29.7478V34.5701H31.6949C32.0994 34.5701 32.4273 34.2423 32.4273 33.8377C32.4273 33.4331 32.0994 33.1053 31.6949 33.1053H23.2646V30.3682C23.3525 30.3294 23.4443 30.283 23.5412 30.2264C24.9611 29.3965 26.9983 28.9408 29.1307 28.9754C29.1348 28.9755 29.1388 28.9755 29.1429 28.9755C29.5418 28.9755 29.8684 28.6555 29.875 28.2551C29.8816 27.8506 29.5591 27.5173 29.1547 27.5107C28.3103 27.4973 27.4878 27.5521 26.7027 27.6685V23.7756C27.3519 23.301 27.9648 22.6868 28.4402 21.8624C29.1404 20.6473 29.1684 19.9817 29.219 18.7736C29.2271 18.5803 29.236 18.3686 29.2484 18.133C29.2488 18.1265 29.2483 18.12 29.2484 18.1135C29.2486 18.1071 29.2494 18.1009 29.2494 18.0944V16.2979C29.2494 14.1676 27.5163 12.4344 25.3861 12.4344H25.1301C26.215 11.3252 26.9407 9.88682 26.9407 8.59365V7.09063C26.9407 5.20254 26.3361 3.59824 25.1923 2.45137C24.1675 1.42383 22.7884 0.84502 21.3091 0.82168C21.3014 0.821484 21.2937 0.821484 21.2859 0.82168C19.8065 0.84502 18.4271 1.42383 17.4016 2.45127C16.2566 3.59834 15.6516 5.20264 15.6516 7.09072V8.59375C15.6516 9.88643 16.3773 11.3248 17.4634 12.4345H17.2061C15.3071 12.4345 14.372 13.5953 13.8335 14.4688L9.56885 21.3944C9.08652 20.5283 7.89082 18.6655 6.47695 18.5572C6.0834 18.5274 5.58994 18.5395 5.26094 18.9039C4.91475 19.2876 5.00166 19.7679 5.06504 20.1186L6.09551 25.9944C6.18691 26.5154 6.25898 26.927 6.60303 27.2064C6.96338 27.4993 7.37793 27.4551 7.8582 27.4035C7.95674 27.3931 8.06768 27.3812 8.19346 27.3696C10.2262 27.1822 11.7682 27.7733 12.3365 28.0358C12.9519 28.3204 13.4967 28.63 13.9791 28.9497V32.8753C13.9563 32.8753 13.9349 32.8755 13.9119 32.8755H8.01836C7.15693 32.8755 7.13369 32.8265 7.02256 32.5922C6.8792 32.2885 5.57041 29.6205 3.78643 29.4839C3.3918 29.4533 2.89678 29.4656 2.56787 29.8313C2.22148 30.2163 2.30684 30.6799 2.37539 31.0523L3.39014 36.8481H1.20029C0.538477 36.848 0 37.3865 0 38.0483V43.7897C0 44.4531 0.538477 44.9928 1.20029 44.9928H3.02568V46.3532C3.02568 47.911 4.29307 49.1785 5.85088 49.1785H44.1464C45.7042 49.1785 46.9716 47.911 46.9716 46.3532V44.9928H48.797C49.4603 44.9928 50 44.4531 50 43.7897V38.0483C50 37.3865 49.4604 36.848 48.797 36.848ZM43.6574 32.4936C43.0683 31.2131 42.9506 30.0126 43.3259 29.1132C43.5557 28.5627 43.9632 28.1677 44.5043 27.971C45.0866 27.7596 45.4798 27.7003 45.7242 27.7003C45.9101 27.7003 46.01 27.7347 46.0415 27.7623C46.0666 27.7845 46.139 27.9628 46.0338 28.4318V28.4317C45.7062 29.8922 45.8408 31.0543 45.9488 31.9882C46.0286 32.6776 46.0975 33.2729 45.9667 33.8234C45.5511 35.5712 44.5387 36.4133 42.1521 36.7139C42.1583 36.7085 42.1646 36.7031 42.1709 36.6977C44.1967 34.9489 44.0972 33.4457 43.6574 32.4936ZM36.6835 33.04C36.6301 32.5419 36.6954 31.9942 36.8716 31.4586C37.328 30.0869 38.599 28.6164 40.4095 28.4232C40.9387 28.3667 41.468 28.4129 41.9727 28.5527C41.4395 29.8339 41.565 31.4506 42.327 33.1067C43.0439 34.659 40.3155 36.3101 39.4502 36.7854C37.9206 36.2052 36.8705 34.7961 36.6835 33.04ZM28.2829 34.5702V36.848H21.9081C21.3296 36.7929 20.8756 36.3045 20.8756 35.7118C20.8756 35.0823 21.3877 34.5702 22.0172 34.5702H28.2829ZM25.2379 27.9698C24.3401 28.2112 23.5169 28.5437 22.8019 28.9616C22.7878 28.9698 22.7748 28.9773 22.7626 28.9843C22.6811 28.888 22.5755 28.7525 22.4779 28.6275C22.3588 28.4748 22.2105 28.2846 22.0325 28.0663C21.6529 27.6038 21.11 27.048 20.5498 26.5383L24.5839 24.9107C24.7944 24.8256 25.0141 24.7313 25.2378 24.6271V27.9698H25.2379ZM18.877 25.6338C18.6537 25.7231 18.4074 25.7193 18.1834 25.6235C17.9596 25.5276 17.7871 25.3519 17.6973 25.1267C17.6074 24.9034 17.6106 24.657 17.7063 24.4331C17.8023 24.2085 17.9788 24.0354 18.203 23.9459C18.2096 23.9434 18.216 23.9405 18.2226 23.9378L21.9227 22.3346L22.7926 24.0541L18.877 25.6338ZM21.2975 2.28643C23.1198 2.32031 25.0638 3.56475 25.4187 6.20654C23.8185 5.90146 20.5542 5.24805 20.1747 5.14971C20.1745 5.14961 20.1744 5.14961 20.1742 5.14951C19.9616 5.09463 19.7651 5.0707 19.5824 5.0707C18.8898 5.0707 18.3971 5.41348 17.9842 5.70068C17.7309 5.87695 17.4855 6.04756 17.1782 6.17236C17.5455 3.5541 19.4818 2.32021 21.2975 2.28643ZM17.1163 8.59375V7.7208C17.901 7.54141 18.4199 7.18193 18.8207 6.90313C19.3012 6.56895 19.4555 6.47656 19.8075 6.56768C20.0704 6.63564 23.8689 7.4127 25.4758 7.7084V8.59375C25.4758 9.85264 24.2741 11.6976 22.6181 12.4858C22.5949 12.495 22.5723 12.5052 22.5504 12.5165C22.4596 12.5578 22.3679 12.5968 22.2746 12.6314C21.8939 12.7709 21.5926 12.833 21.2975 12.833C21.0045 12.833 20.6931 12.7689 20.321 12.6326C20.2319 12.5995 20.1435 12.5619 20.0555 12.5218C20.032 12.5092 20.0076 12.498 19.9828 12.488C18.444 11.7494 17.1163 9.98262 17.1163 8.59375ZM22.9873 13.9244V14.1441C22.9873 15.2103 22.2293 16.0776 21.2976 16.0776C20.3643 16.0776 19.605 15.2103 19.605 14.1441V13.9241C19.6742 13.9532 19.7437 13.9809 19.8138 14.0069C20.3558 14.2055 20.8272 14.2979 21.2976 14.2979C21.7659 14.2979 22.2366 14.2055 22.7818 14.0058C22.8506 13.9802 22.9191 13.9529 22.9873 13.9244ZM15.0807 15.2372C15.6664 14.287 16.2822 13.8994 17.2061 13.8994H18.14V14.1442C18.14 16.0181 19.5564 17.5426 21.2975 17.5426C23.0369 17.5426 24.4521 16.0182 24.4521 14.1442V13.8994H25.386C26.7085 13.8994 27.7845 14.9755 27.7845 16.298V18.0761C27.7724 18.3091 27.7635 18.5198 27.7554 18.7124C27.7065 19.8761 27.6918 20.2272 27.171 21.1311C26.5785 22.1584 25.6712 22.8721 24.1551 23.5026L23.2623 21.7378C23.6033 21.5594 23.8461 21.3708 24.1889 21.0112C24.2253 20.9731 24.2573 20.9312 24.2847 20.8862L25.1677 19.4328C25.3777 19.0871 25.2678 18.6366 24.9221 18.4266C24.5765 18.2163 24.1259 18.3265 23.9158 18.6722L23.0749 20.0562C22.7954 20.3431 22.6681 20.4137 22.2464 20.5979L17.649 22.5899C17.2369 22.7567 16.8894 23.0319 16.6321 23.3832C15.9781 23.0228 15.2729 22.7585 14.5448 22.5611L16.0361 20.1366C16.248 19.7921 16.1405 19.341 15.796 19.129C15.4515 18.9172 15.0004 19.0247 14.7885 19.3691L13.0229 22.2394C12.3153 22.1259 11.6052 22.054 10.9169 21.9992L15.0807 15.2372ZM10.2722 25.9546C9.61416 25.8681 8.86904 25.8363 8.05967 25.9109C7.92598 25.9231 7.61914 25.956 7.57803 25.9602C7.56299 25.8816 6.54326 20.0652 6.54326 20.0652C7.12187 20.3113 7.99346 21.4507 8.47178 22.4548C8.74375 23.0304 9.03271 23.2742 9.41973 23.3667C9.87559 23.4254 10.2075 23.4156 10.3578 23.426C10.5516 23.4398 10.7482 23.4552 10.9459 23.4716L10.2722 25.9546ZM15.4439 30.1146C16.5932 31.2152 17.0886 32.2389 17.1506 32.6244C16.9295 32.7374 16.3572 32.8125 15.4439 32.8492V30.1146ZM9.29893 34.3404H13.9119C16.755 34.3404 17.7335 34.1726 18.2742 33.5923C18.4504 33.4031 18.653 33.0725 18.6178 32.5727C18.5253 31.2209 16.6604 28.4217 12.9513 26.7062C12.6938 26.5873 12.2686 26.4117 11.7094 26.2521L12.4204 23.6312C13.762 23.8187 15.0887 24.1463 16.1672 24.8073C16.1691 25.1004 16.2255 25.393 16.3378 25.6718C16.5722 26.2588 17.0228 26.7197 17.6065 26.9699C17.908 27.0991 18.2256 27.1639 18.5433 27.1639C18.6918 27.1639 18.8404 27.1496 18.9873 27.1213C19.6726 27.6856 20.439 28.4335 20.8989 28.994C21.0654 29.1981 21.2021 29.3735 21.3229 29.5283C21.4825 29.7332 21.6363 29.9297 21.7998 30.0929V33.1152C20.4641 33.2262 19.4108 34.348 19.4108 35.7119C19.4108 36.119 19.5048 36.5045 19.672 36.8481H9.29893V34.3404ZM5.69844 33.2187C6.1918 34.2589 7.04443 34.3344 7.83408 34.3398V36.848H4.87725L3.85186 30.9879C4.43467 31.2166 5.25459 32.2784 5.69844 33.2187ZM48.5352 43.528H26.7481C26.3437 43.528 26.0157 43.8559 26.0157 44.2604C26.0157 44.665 26.3437 44.9929 26.7481 44.9929H45.5067V46.3533C45.5067 47.1035 44.8965 47.7138 44.1464 47.7138H5.85088C5.10078 47.7138 4.49053 47.1035 4.49053 46.3533V44.9929H23.5259C23.9304 44.9929 24.2583 44.665 24.2583 44.2604C24.2583 43.8559 23.9304 43.528 23.5259 43.528H1.46484V38.313H4.25889C4.25957 38.313 4.26035 38.3131 4.26103 38.3131C4.26152 38.3131 48.5352 38.313 48.5352 38.313V43.528Z" fill="#2B3990"/>
</g>
<defs>
<clipPath id="clip0_178_4698">
<rect width="50" height="50" fill="white"/>
</clipPath>
</defs>
</svg>
