<svg width="50" height="50" viewBox="0 0 50 50" fill="none" xmlns="http://www.w3.org/2000/svg">
<mask id="mask0_777_5206" style="mask-type:luminance" maskUnits="userSpaceOnUse" x="0" y="0" width="50" height="50">
<path d="M49.25 49.25V0.75H0.75V49.25H49.25Z" fill="white" stroke="white" stroke-width="1.5"/>
</mask>
<g mask="url(#mask0_777_5206)">
<path d="M24.9999 23.5044C24.9999 25.4952 24.385 27.0633 22.4044 27.0357C20.9639 27.0157 19.7314 26.2408 19.193 24.9869C19.1286 24.837 18.984 24.7412 18.8215 24.7416H18.811C16.3462 24.7416 14.8892 23.3828 14.8892 20.9057C14.8892 20.6132 14.9173 20.3274 14.9706 20.0507C15.0027 19.883 14.9277 19.7138 14.78 19.6288C12.9372 18.5679 12.2275 17.2339 12.2275 14.9464C12.2275 12.659 12.9372 11.3246 14.78 10.264C14.9277 10.179 15.0027 10.0098 14.9706 9.8419C14.9173 9.56514 14.8892 9.2796 14.8892 8.98712C14.8892 6.50997 16.3462 5.15118 18.811 5.15118H18.8215C18.984 5.15157 19.1286 5.05577 19.193 4.90558C19.7314 3.65196 20.9639 2.87716 22.4044 2.85714C24.3852 2.8295 24.9999 4.39757 24.9999 6.38839" stroke="#2B3990" stroke-width="1.5" stroke-miterlimit="10" stroke-linecap="round" stroke-linejoin="round"/>
<path d="M25 6.38827C25 4.39745 25.6149 2.82938 27.5955 2.85702C29.036 2.87694 30.2685 3.65184 30.8069 4.90575C30.8713 5.05565 31.0159 5.15145 31.1784 5.15106H31.1889C33.6537 5.15106 35.1107 6.50985 35.1107 8.987C35.1107 9.27948 35.0826 9.56532 35.0293 9.84198C34.9972 10.0097 35.0722 10.1789 35.2199 10.2639C37.0627 11.3248 37.7724 12.6589 37.7724 14.9463C37.7724 17.2338 37.0627 18.568 35.2199 19.6287C35.0722 19.7137 34.9972 19.8829 35.0293 20.0508C35.0826 20.3275 35.1107 20.6131 35.1107 20.9055C35.1107 23.3827 33.6537 24.7415 31.1889 24.7415H31.1784C31.0159 24.7411 30.8713 24.8369 30.8069 24.9871C30.2685 26.2407 29.036 27.0155 27.5955 27.0355C25.6147 27.0632 25 25.4951 25 23.5043" stroke="#2B3990" stroke-width="1.5" stroke-miterlimit="10" stroke-linecap="round" stroke-linejoin="round"/>
<path d="M30.9416 5.09746C30.5789 6.46152 29.1845 7.27187 27.8271 6.90732" stroke="#2B3990" stroke-width="1.5" stroke-miterlimit="10" stroke-linecap="round" stroke-linejoin="round"/>
<path d="M30.9792 24.7593C29.8721 24.4619 29.2145 23.3188 29.5103 22.2063" stroke="#2B3990" stroke-width="1.5" stroke-miterlimit="10" stroke-linecap="round" stroke-linejoin="round"/>
<path d="M19.0576 24.7953C19.4203 23.4312 20.8147 22.6209 22.1721 22.9854" stroke="#2B3990" stroke-width="1.5" stroke-miterlimit="10" stroke-linecap="round" stroke-linejoin="round"/>
<path d="M19.0205 5.13337C20.1276 5.43074 20.7853 6.5738 20.4895 7.6864" stroke="#2B3990" stroke-width="1.5" stroke-miterlimit="10" stroke-linecap="round" stroke-linejoin="round"/>
<path d="M18.1704 17.1676C18.1393 17.1365 18.1088 17.105 18.0792 17.0732C16.9641 15.8769 17.8256 13.9241 19.461 13.9241" stroke="#2B3990" stroke-width="1.5" stroke-miterlimit="10" stroke-linecap="round" stroke-linejoin="round"/>
<path d="M31.8297 17.1676C31.8607 17.1365 31.8912 17.105 31.9209 17.0732C33.0359 15.8769 32.1744 13.9241 30.5391 13.9241" stroke="#2B3990" stroke-width="1.5" stroke-miterlimit="10" stroke-linecap="round" stroke-linejoin="round"/>
<path d="M25 6.38836V23.5829" stroke="#2B3990" stroke-width="1.5" stroke-miterlimit="10" stroke-linecap="round" stroke-linejoin="round"/>
<path d="M41.5088 21.5957V14.2287C41.5088 13.1338 42.3964 12.246 43.4915 12.246C43.502 12.246 43.5591 12.2472 43.5604 12.2472C44.0183 12.2629 44.4367 12.4338 44.7648 12.7089" stroke="#2B3990" stroke-width="1.5" stroke-miterlimit="10" stroke-linecap="round" stroke-linejoin="round"/>
<path d="M8.49141 21.5957V14.2287C8.49141 13.1338 7.60381 12.246 6.50869 12.246C6.49824 12.246 6.44111 12.2472 6.43975 12.2472C5.98193 12.2629 5.56348 12.4338 5.23535 12.7089" stroke="#2B3990" stroke-width="1.5" stroke-miterlimit="10" stroke-linecap="round" stroke-linejoin="round"/>
<path d="M12.3297 32.1986L5.44691 24.9984C4.94173 24.4855 4.74154 23.7862 4.84457 23.1256C4.91293 22.6869 5.11498 22.2652 5.45033 21.9264C5.45687 21.9198 5.62562 21.7674 5.62611 21.767C6.49037 21.0634 7.76429 21.1198 8.56214 21.9298L15.5906 28.8553C17.398 30.6362 18.4158 33.0678 18.4158 35.6052V47.1434H11.5513V38.9229L3.57299 32.4875C1.97924 31.0226 1.01967 28.9773 0.978357 26.813C0.97699 26.7416 0.976404 26.6698 0.976599 26.5975C0.985779 23.2928 1.00004 12.5384 1.00004 10.2019C1.00004 9.22937 2.02992 8.52439 3.04759 8.57224C4.114 8.62244 4.93451 9.54109 4.93451 10.6088V22.7415" stroke="#2B3990" stroke-width="1.5" stroke-miterlimit="10" stroke-linecap="round" stroke-linejoin="round"/>
<path d="M41.0837 28.6063L44.5528 24.9984C45.058 24.4855 45.2582 23.7862 45.1552 23.1256C45.0868 22.6869 44.8848 22.2652 44.5494 21.9265C44.5429 21.9198 44.3741 21.7674 44.3736 21.767C43.5094 21.0634 42.2354 21.1198 41.4376 21.9298L34.4092 28.8552C32.6018 30.6362 31.584 33.0677 31.584 35.6052V47.1434H38.4484V38.923L46.4268 32.4876C48.0205 31.0226 48.9801 28.9773 49.0214 26.813C49.0228 26.7416 49.0233 26.6698 49.0231 26.5975C49.014 23.2927 48.9997 12.5384 48.9997 10.2019C48.9997 9.22947 47.9698 8.52439 46.9521 8.57234C45.8857 8.62244 45.0652 9.54109 45.0652 10.6089V22.7415" stroke="#2B3990" stroke-width="1.5" stroke-miterlimit="10" stroke-linecap="round" stroke-linejoin="round"/>
</g>
</svg>
